<svg width="247" height="220" viewBox="0 0 247 220" fill="none" xmlns="http://www.w3.org/2000/svg">
<g filter="url(#filter0_f_16851_30590)" >
<path d="M233 118.157C233 171.176 178.114 206 119.724 206C61.3343 206 14 163.019 14 110C14 56.9807 61.3343 14 119.724 14C178.114 14 233 65.1375 233 118.157Z" fill="url(#paint0_linear_16851_30590)" fill-opacity="0.5"/>
<path d="M233 118.157C233 171.176 178.114 206 119.724 206C61.3343 206 14 163.019 14 110C14 56.9807 61.3343 14 119.724 14C178.114 14 233 65.1375 233 118.157Z" stroke="url(#paint1_linear_16851_30590)" stroke-width="10"/>
<path d="M233 118.157C233 171.176 178.114 206 119.724 206C61.3343 206 14 163.019 14 110C14 56.9807 61.3343 14 119.724 14C178.114 14 233 65.1375 233 118.157Z" stroke="url(#paint2_linear_16851_30590)" stroke-width="10"/>
</g>
<path d="M234 116.157C234 169.176 179.114 204 120.724 204C62.3343 204 15 161.019 15 108C15 54.9807 62.3343 12 120.724 12C179.114 12 234 63.1375 234 116.157Z" fill="url(#paint3_linear_16851_30590)" fill-opacity="0.5"/>
<path d="M234 116.157C234 169.176 179.114 204 120.724 204C62.3343 204 15 161.019 15 108C15 54.9807 62.3343 12 120.724 12C179.114 12 234 63.1375 234 116.157Z" stroke="url(#paint4_linear_16851_30590)" stroke-width="5"/>
<path d="M234 116.157C234 169.176 179.114 204 120.724 204C62.3343 204 15 161.019 15 108C15 54.9807 62.3343 12 120.724 12C179.114 12 234 63.1375 234 116.157Z" stroke="url(#paint5_linear_16851_30590)" stroke-width="5"/>
<defs>
<filter id="filter0_f_16851_30590" x="0" y="0" width="247" height="220" filterUnits="userSpaceOnUse" color-interpolation-filters="sRGB">
<feFlood flood-opacity="0" result="BackgroundImageFix"/>
<feBlend mode="normal" in="SourceGraphic" in2="BackgroundImageFix" result="shape"/>
<feGaussianBlur stdDeviation="4.5" result="effect1_foregroundBlur_16851_30590"/>
</filter>
<linearGradient id="paint0_linear_16851_30590" x1="149.821" y1="14" x2="149.821" y2="206" gradientUnits="userSpaceOnUse">
<stop stop-color="#768692"/>
<stop offset="1" stop-color="#53545A"/>
</linearGradient>
<linearGradient id="paint1_linear_16851_30590" x1="149.821" y1="14" x2="149.821" y2="206" gradientUnits="userSpaceOnUse">
<stop stop-color="#D9DBE9"/>
<stop offset="1" stop-color="#ED8B00"/>
</linearGradient>
<linearGradient id="paint2_linear_16851_30590" x1="28.6625" y1="109.373" x2="232.837" y2="215.106" gradientUnits="userSpaceOnUse">
<stop offset="0.0104167" stop-color="#768692"/>
<stop offset="1" stop-color="white" stop-opacity="0.15"/>
</linearGradient>
<linearGradient id="paint3_linear_16851_30590" x1="150.821" y1="12" x2="150.821" y2="204" gradientUnits="userSpaceOnUse">
<stop stop-color="#768692"/>
<stop offset="1" stop-color="#53545A"/>
</linearGradient>
<linearGradient id="paint4_linear_16851_30590" x1="150.821" y1="12" x2="150.821" y2="204" gradientUnits="userSpaceOnUse">
<stop stop-color="#D9DBE9"/>
<stop offset="1" stop-color="#ED8B00"/>
</linearGradient>
<linearGradient id="paint5_linear_16851_30590" x1="29.6625" y1="107.373" x2="233.837" y2="213.106" gradientUnits="userSpaceOnUse">
<stop offset="0.0104167" stop-color="#768692"/>
<stop offset="1" stop-color="white" stop-opacity="0.15"/>
</linearGradient>
</defs>
</svg>
