<svg width="164" height="181" viewBox="0 0 164 181" fill="none" xmlns="http://www.w3.org/2000/svg" style="transform: rotate(85deg);">
            <g filter="url(#filter0_f_16802_26197)">
            <path d="M97.758 14.5162C134.79 19.3603 154.098 60.8776 148.763 101.66C143.429 142.443 109.084 171.577 72.052 166.733C35.0202 161.889 9.32467 124.901 14.6594 84.1185C19.9942 43.3356 60.7262 9.67214 97.758 14.5162Z" fill="url(#paint0_linear_16802_26197)" fill-opacity="0.5"/>
            <path d="M97.758 14.5162C134.79 19.3603 154.098 60.8776 148.763 101.66C143.429 142.443 109.084 171.577 72.052 166.733C35.0202 161.889 9.32467 124.901 14.6594 84.1185C19.9942 43.3356 60.7262 9.67214 97.758 14.5162Z" stroke="url(#paint1_linear_16802_26197)" stroke-width="9"/>
            <path d="M97.758 14.5162C134.79 19.3603 154.098 60.8776 148.763 101.66C143.429 142.443 109.084 171.577 72.052 166.733C35.0202 161.889 9.32467 124.901 14.6594 84.1185C19.9942 43.3356 60.7262 9.67214 97.758 14.5162Z" stroke="url(#paint2_linear_16802_26197)" stroke-width="9"/>
            </g>
            <path d="M97.758 12.5162C134.79 17.3603 154.098 58.8776 148.763 99.6604C143.429 140.443 109.084 169.577 72.052 164.733C35.0202 159.889 9.32467 122.901 14.6594 82.1185C19.9942 41.3356 60.7262 7.67214 97.758 12.5162Z" fill="url(#paint3_linear_16802_26197)" fill-opacity="0.5"/>
            <path d="M97.758 12.5162C134.79 17.3603 154.098 58.8776 148.763 99.6604C143.429 140.443 109.084 169.577 72.052 164.733C35.0202 159.889 9.32467 122.901 14.6594 82.1185C19.9942 41.3356 60.7262 7.67214 97.758 12.5162Z" stroke="url(#paint4_linear_16802_26197)" stroke-width="5"/>
            <path d="M97.758 12.5162C134.79 17.3603 154.098 58.8776 148.763 99.6604C143.429 140.443 109.084 169.577 72.052 164.733C35.0202 159.889 9.32467 122.901 14.6594 82.1185C19.9942 41.3356 60.7262 7.67214 97.758 12.5162Z" stroke="url(#paint5_linear_16802_26197)" stroke-width="5"/>
            <defs>
            <filter id="filter0_f_16802_26197" x="0.461914" y="0.550049" width="162.676" height="180.213" filterUnits="userSpaceOnUse" color-interpolation-filters="sRGB">
            <feFlood flood-opacity="0" result="BackgroundImageFix"/>
            <feBlend mode="normal" in="SourceGraphic" in2="BackgroundImageFix" result="shape"/>
            <feGaussianBlur stdDeviation="4.5" result="effect1_foregroundBlur_16802_26197"/>
            </filter>
            <linearGradient id="paint0_linear_16802_26197" x1="17.4092" y1="63.0972" x2="151.513" y2="80.6392" gradientUnits="userSpaceOnUse">
            <stop stop-color="#768692"/>
            <stop offset="1" stop-color="#53545A"/>
            </linearGradient>
            <linearGradient id="paint1_linear_16802_26197" x1="17.4092" y1="63.0972" x2="151.513" y2="80.6392" gradientUnits="userSpaceOnUse">
            <stop stop-color="#D9DBE9"/>
            <stop offset="1" stop-color="#ED8B00"/>
            </linearGradient>
            <linearGradient id="paint2_linear_16802_26197" x1="72.9534" y1="156.435" x2="165.458" y2="23.4881" gradientUnits="userSpaceOnUse">
            <stop offset="0.0104167" stop-color="#768692"/>
            <stop offset="1" stop-color="white" stop-opacity="0.15"/>
            </linearGradient>
            <linearGradient id="paint3_linear_16802_26197" x1="17.4092" y1="61.0972" x2="151.513" y2="78.6392" gradientUnits="userSpaceOnUse">
            <stop stop-color="#768692"/>
            <stop offset="1" stop-color="#53545A"/>
            </linearGradient>
            <linearGradient id="paint4_linear_16802_26197" x1="17.4092" y1="61.0972" x2="151.513" y2="78.6392" gradientUnits="userSpaceOnUse">
            <stop stop-color="#D9DBE9"/>
            <stop offset="1" stop-color="#ED8B00"/>
            </linearGradient>
            <linearGradient id="paint5_linear_16802_26197" x1="72.9534" y1="154.435" x2="165.458" y2="21.4881" gradientUnits="userSpaceOnUse">
            <stop offset="0.0104167" stop-color="#768692"/>
            <stop offset="1" stop-color="white" stop-opacity="0.15"/>
            </linearGradient>
            </defs>
            </svg>