<svg width="220" height="245" viewBox="0 0 220 245" fill="none" xmlns="http://www.w3.org/2000/svg">
<g filter="url(#filter0_f_16802_25960)">
<path d="M132.682 14.5094C185.254 21.3862 212.664 80.3253 205.091 138.222C197.518 196.119 148.761 237.478 96.1891 230.601C43.6176 223.725 7.13943 171.215 14.7128 113.319C22.2862 55.4223 80.1107 7.63257 132.682 14.5094Z" fill="url(#paint0_linear_16802_25960)" fill-opacity="0.5"/>
<path d="M132.682 14.5094C185.254 21.3862 212.664 80.3253 205.091 138.222C197.518 196.119 148.761 237.478 96.1891 230.601C43.6176 223.725 7.13943 171.215 14.7128 113.319C22.2862 55.4223 80.1107 7.63257 132.682 14.5094Z" stroke="url(#paint1_linear_16802_25960)" stroke-width="9"/>
<path d="M132.682 14.5094C185.254 21.3862 212.664 80.3253 205.091 138.222C197.518 196.119 148.761 237.478 96.1891 230.601C43.6176 223.725 7.13943 171.215 14.7128 113.319C22.2862 55.4223 80.1107 7.63257 132.682 14.5094Z" stroke="url(#paint2_linear_16802_25960)" stroke-width="9"/>
</g>
<defs>
<filter id="filter0_f_16802_25960" x="0.221191" y="0.348145" width="219.612" height="244.504" filterUnits="userSpaceOnUse" color-interpolation-filters="sRGB">
<feFlood flood-opacity="0" result="BackgroundImageFix"/>
<feBlend mode="normal" in="SourceGraphic" in2="BackgroundImageFix" result="shape"/>
<feGaussianBlur stdDeviation="4.5" result="effect1_foregroundBlur_16802_25960"/>
</filter>
<linearGradient id="paint0_linear_16802_25960" x1="18.6165" y1="83.4764" x2="208.995" y2="108.379" gradientUnits="userSpaceOnUse">
<stop stop-color="#768692"/>
<stop offset="1" stop-color="#53545A"/>
</linearGradient>
<linearGradient id="paint1_linear_16802_25960" x1="18.6165" y1="83.4764" x2="208.995" y2="108.379" gradientUnits="userSpaceOnUse">
<stop stop-color="#D9DBE9"/>
<stop offset="1" stop-color="#ED8B00"/>
</linearGradient>
<linearGradient id="paint2_linear_16802_25960" x1="97.4687" y1="215.981" x2="228.791" y2="27.2461" gradientUnits="userSpaceOnUse">
<stop offset="0.0104167" stop-color="#768692"/>
<stop offset="1" stop-color="white" stop-opacity="0.15"/>
</linearGradient>
</defs>
</svg>
