<svg width="244" height="225" viewBox="0 0 244 225" fill="none" xmlns="http://www.w3.org/2000/svg">
<g filter="url(#filter0_f_16802_26182)">
<path d="M23.9217 162.574C-2.58802 116.658 27.5328 59.057 78.0999 29.8621C128.667 0.66714 191.15 14.2223 217.66 60.1384C244.169 106.055 224.667 166.944 174.1 196.139C123.533 225.334 50.4313 208.49 23.9217 162.574Z" fill="url(#paint0_linear_16802_26182)" fill-opacity="0.5"/>
<path d="M23.9217 162.574C-2.58802 116.658 27.5328 59.057 78.0999 29.8621C128.667 0.66714 191.15 14.2223 217.66 60.1384C244.169 106.055 224.667 166.944 174.1 196.139C123.533 225.334 50.4313 208.49 23.9217 162.574Z" stroke="url(#paint1_linear_16802_26182)" stroke-width="9"/>
<path d="M23.9217 162.574C-2.58802 116.658 27.5328 59.057 78.0999 29.8621C128.667 0.66714 191.15 14.2223 217.66 60.1384C244.169 106.055 224.667 166.944 174.1 196.139C123.533 225.334 50.4313 208.49 23.9217 162.574Z" stroke="url(#paint2_linear_16802_26182)" stroke-width="9"/>
</g>
<defs>
<filter id="filter0_f_16802_26182" x="0.588867" y="0.978027" width="242.426" height="223.14" filterUnits="userSpaceOnUse" color-interpolation-filters="sRGB">
<feFlood flood-opacity="0" result="BackgroundImageFix"/>
<feBlend mode="normal" in="SourceGraphic" in2="BackgroundImageFix" result="shape"/>
<feGaussianBlur stdDeviation="4.5" result="effect1_foregroundBlur_16802_26182"/>
</filter>
<linearGradient id="paint0_linear_16802_26182" x1="148.035" y1="211.187" x2="52.0354" y2="44.9104" gradientUnits="userSpaceOnUse">
<stop stop-color="#768692"/>
<stop offset="1" stop-color="#53545A"/>
</linearGradient>
<linearGradient id="paint1_linear_16802_26182" x1="148.035" y1="211.187" x2="52.0354" y2="44.9104" gradientUnits="userSpaceOnUse">
<stop stop-color="#D9DBE9"/>
<stop offset="1" stop-color="#ED8B00"/>
</linearGradient>
<linearGradient id="paint2_linear_16802_26182" x1="205.275" y1="68.013" x2="-24.4111" y2="78.5326" gradientUnits="userSpaceOnUse">
<stop offset="0.0104167" stop-color="#768692"/>
<stop offset="1" stop-color="white" stop-opacity="0.15"/>
</linearGradient>
</defs>
</svg>
