<svg width="222" height="203" viewBox="0 0 222 203" fill="none" xmlns="http://www.w3.org/2000/svg">
<path d="M12.9217 151.574C-13.588 105.658 16.5328 48.057 67.0999 18.8621C117.667 -10.3329 180.15 3.22233 206.66 49.1384C233.169 95.0545 213.667 155.944 163.1 185.139C112.533 214.334 39.4313 197.49 12.9217 151.574Z" fill="url(#paint0_linear_16802_26193)" fill-opacity="0.5"/>
<path d="M12.9217 151.574C-13.588 105.658 16.5328 48.057 67.0999 18.8621C117.667 -10.3329 180.15 3.22233 206.66 49.1384C233.169 95.0545 213.667 155.944 163.1 185.139C112.533 214.334 39.4313 197.49 12.9217 151.574Z" stroke="url(#paint1_linear_16802_26193)" stroke-width="5"/>
<path d="M12.9217 151.574C-13.588 105.658 16.5328 48.057 67.0999 18.8621C117.667 -10.3329 180.15 3.22233 206.66 49.1384C233.169 95.0545 213.667 155.944 163.1 185.139C112.533 214.334 39.4313 197.49 12.9217 151.574Z" stroke="url(#paint2_linear_16802_26193)" stroke-width="5"/>
<defs>
<linearGradient id="paint0_linear_16802_26193" x1="137.035" y1="200.187" x2="41.0354" y2="33.9104" gradientUnits="userSpaceOnUse">
<stop stop-color="#768692"/>
<stop offset="1" stop-color="#53545A"/>
</linearGradient>
<linearGradient id="paint1_linear_16802_26193" x1="137.035" y1="200.187" x2="41.0354" y2="33.9104" gradientUnits="userSpaceOnUse">
<stop stop-color="#D9DBE9"/>
<stop offset="1" stop-color="#ED8B00"/>
</linearGradient>
<linearGradient id="paint2_linear_16802_26193" x1="194.275" y1="57.013" x2="-35.4111" y2="67.5326" gradientUnits="userSpaceOnUse">
<stop offset="0.0104167" stop-color="#768692"/>
<stop offset="1" stop-color="white" stop-opacity="0.15"/>
</linearGradient>
</defs>
</svg>
